# xmcd
#
# Track frame offsets:
# 150
# 13924
# 32273
# 56701
# 69661
# 95874
# 110927
# 137740
# 165790
# 180228
# 202113
# 216683
# 239393
# 259951
# 277479
#
# Disc length: 3842 seconds
#
#
# Revision: 0
# Processed by: cddbd v1.5.1PL2 Copyright (c) Steve Scherf et al.
# Submitted via: FreeRIP 2.944 
#
DISCID=ef0f000f
DTITLE=Mac "THe Knife" Okuyama and Friends - Drinking Buddies
DYEAR=1900
DGENRE=Blues
TTITLE0=Blues Alive
TTITLE1=Set Me Free
TTITLE2=Leaving Chicago
TTITLE3=My Baby
TTITLE4=Little Bit of Love
TTITLE5=Let Me Be The One
TTITLE6=Lone Star
TTITLE7=Chosen By The Blues
TTITLE8=Lonely Beach
TTITLE9=Leave The Past Behind
TTITLE10=One For Jimi
TTITLE11=Don't Start A Fight
TTITLE12=Lone Star(Acoustic Version)
TTITLE13=Scratch The Eye First
TTITLE14=Spring Day
EXTD=Local guitar hero in Tokyo
EXTT0=
EXTT1=
EXTT2=
EXTT3=
EXTT4=
EXTT5=
EXTT6=
EXTT7=
EXTT8=
EXTT9=
EXTT10=
EXTT11=
EXTT12=
EXTT13=
EXTT14=
PLAYORDER=
